<?xml version="1.0" encoding="UTF-8"?> <svg xmlns="http://www.w3.org/2000/svg" width="139" height="40" viewBox="0 0 139 40" fill="none"> <path fill-rule="evenodd" clip-rule="evenodd" d="M138.985 40C94.1651 40 104.981 0 68.365 0C30.5032 0 46.3037 40 0 40H139H138.985Z" fill="#f0f0f0"></path> <path fill-rule="evenodd" clip-rule="evenodd" d="M68.9115 15.3062C64.6202 15.3062 61.1091 18.5137 61.1091 22.4341V32.4131C61.1091 36.3334 64.6202 39.541 68.9115 39.541C73.2028 39.541 76.7139 36.3334 76.7139 32.4131V22.4341C76.7139 18.5137 73.2028 15.3062 68.9115 15.3062ZM75.0977 32.4131C75.0977 35.5188 72.3111 38.0645 68.9115 38.0645C65.5119 38.0645 62.7253 35.5188 62.7253 32.4131V22.4341C62.7253 19.3283 65.5119 16.7827 68.9115 16.7827C72.3111 16.7827 75.0977 19.3283 75.0977 22.4341V32.4131Z" fill="#14104B"></path> <path fill-rule="evenodd" clip-rule="evenodd" d="M68.9116 20.143C68.4658 20.143 68.1314 20.4484 68.1314 20.8557V24.216C68.1314 24.6233 68.4658 24.9288 68.9116 24.9288C69.3575 24.9288 69.6919 24.6233 69.6919 24.216V20.8557C69.6919 20.4484 69.3575 20.143 68.9116 20.143Z" fill="#14104B"></path> </svg> 