<svg xmlns="http://www.w3.org/2000/svg" width="84" height="76" viewBox="0 0 84 76" fill="none"> <path d="M6.00012 42.7184C6.00012 60.5473 20.4521 75 38.2819 75C56.1106 75 70.5643 60.5473 70.5643 42.7184C70.5643 24.8884 56.1106 10.4352 38.2819 10.4352C20.4521 10.4352 6.00012 24.8884 6.00012 42.7184Z" fill="#968c76"/> <path d="M14.9277 42.7185C14.9277 55.616 25.3843 66.0726 38.2828 66.0726C51.1809 66.0726 61.6374 55.616 61.6374 42.7185C61.6374 29.8192 51.1809 19.3625 38.2828 19.3625C25.3843 19.3625 14.9277 29.8192 14.9277 42.7185Z" fill="#FEFEFE"/> <path d="M22.2402 42.7184C22.2402 51.5779 29.4228 58.7595 38.2823 58.7595C47.1418 58.7595 54.3244 51.5779 54.3244 42.7184C54.3244 33.8576 47.1418 26.6755 38.2823 26.6755C29.4228 26.6755 22.2402 33.8582 22.2402 42.7184Z" fill="#f80000"/> <path d="M29.8789 42.7185C29.8789 47.3585 33.6423 51.1219 38.2828 51.1219C42.9246 51.1219 46.6862 47.3591 46.6862 42.7185C46.6862 38.0767 42.9246 34.3145 38.2828 34.3145C33.6423 34.3145 29.8789 38.0767 29.8789 42.7185Z" fill="#FEFEFE"/> <path d="M36.9805 44.0186H42.2564L36.9805 38.7415V44.0186Z" fill="#1d1e25"/> <path d="M71.1992 9.8015H77.2363V8.27914H72.721V3.76318H71.1992V9.8015Z" fill="#f80000"/> <path d="M73.9609 7.03832H79.9986V5.51538H75.4821V1H73.9609V7.03832Z" fill="#f80000"/> <path d="M39.0005 43.0747L75.5116 6.56382L74.435 5.4884L37.924 41.9992L39.0005 43.0747Z" fill="#1d1e25"/> </svg>