<?xml version="1.0" encoding="UTF-8" standalone="no"?>
<!DOCTYPE svg PUBLIC "-//W3C//DTD SVG 1.1//EN" "http://www.w3.org/Graphics/SVG/1.1/DTD/svg11.dtd">
<svg height="100%" stroke-miterlimit="10" style="fill-rule:nonzero;clip-rule:evenodd;stroke-linecap:round;stroke-linejoin:round;" version="1.1" viewBox="2 4 508 508" width="100%" xml:space="preserve" xmlns="http://www.w3.org/2000/svg" xmlns:xlink="http://www.w3.org/1999/xlink">
<defs>
<path d="M2 114.707C2 53.5651 51.5651 4 112.707 4L399.293 4C460.435 4 510 53.5651 510 114.707L510 401.293C510 462.435 460.435 512 399.293 512L112.707 512C51.5651 512 2 462.435 2 401.293L2 114.707Z" id="Fill"/>
</defs>
<g id="icon">
<g opacity="1">
<use fill="#1d1e25" fill-rule="nonzero" stroke="none" xlink:href="#Fill"/>
<mask height="508" id="StrokeMask" maskUnits="userSpaceOnUse" width="508" x="2" y="4">
<rect fill="#000000" height="508" stroke="none" width="508" x="2" y="4"/>
<use fill="#ffffff" fill-rule="evenodd" stroke="none" xlink:href="#Fill"/>
</mask>
<use fill="none" mask="url(#StrokeMask)" stroke="#968c76" stroke-linecap="butt" stroke-linejoin="round" stroke-width="35.321" xlink:href="#Fill"/>
</g>
<g opacity="1"/>
<g opacity="1"/>
<g opacity="1"/>
<g opacity="1"/>
<g opacity="1"/>
<g opacity="1">
<path d="M121.318 434.238L153.709 434.238L115.441 316.755L77.7619 315.882L121.318 434.238Z" fill="#968c76" fill-rule="nonzero" opacity="1" stroke="none"/>
<path d="M270.189 409.946C272.178 414.842 275.823 418.137 281.126 419.832C286.429 421.527 295.045 422.374 306.976 422.374L361.162 422.374C380.052 422.374 395.132 415.783 406.4 402.602C417.668 389.42 425.124 371.153 428.77 347.803C428.77 346.673 429.681 346.202 431.504 346.39C433.327 346.578 434.238 347.238 434.238 348.367C431.255 379.627 429.764 405.426 429.764 425.764C429.764 428.777 429.267 430.943 428.273 432.261C427.278 433.579 425.29 434.238 422.307 434.238L192.639 434.238C191.976 434.238 191.645 433.108 191.645 430.848C191.645 428.589 191.976 427.459 192.639 427.459C205.233 427.459 214.429 426.517 220.229 424.634C226.029 422.751 229.923 419.079 231.911 413.618C233.9 408.157 344.509 103.937 342.521 98.6646C340.532 93.3919 336.638 89.7197 330.838 87.6483C325.039 85.5769 315.842 84.5411 303.248 84.5411C302.585 84.5411 302.254 83.4113 302.254 81.1515C302.254 78.8918 302.585 77.7619 303.248 77.7619L327.607 78.3268C341.526 79.0801 352.794 79.4567 361.411 79.4567C370.691 79.4567 382.29 79.0801 396.209 78.3268L420.071 77.7619C421.065 77.7619 421.562 78.8918 421.562 81.1515C421.562 83.4113 421.065 84.5411 420.071 84.5411C407.809 84.5411 398.778 85.5769 392.978 87.6483C387.178 89.7197 383.201 93.486 381.047 98.9471C378.893 104.408 268.201 405.05 270.189 409.946Z" fill="#968c76" fill-rule="nonzero" opacity="1" stroke="none"/>
<path d="M191.645 318.122L107.032 77.7619L276.258 77.7619L191.645 318.122Z" fill="#968c76" fill-rule="nonzero" opacity="1" stroke="none"/>
</g>
</g>
</svg>
