<?xml version="1.0" encoding="UTF-8"?> <svg xmlns="http://www.w3.org/2000/svg" width="121" height="35" viewBox="0 0 121 35" fill="none"> <path fill-rule="evenodd" clip-rule="evenodd" d="M120.987 35C81.9711 35 91.3861 0 59.512 0C26.5531 0 40.3075 35 0 35H121H120.987Z" fill="white"></path> <path fill-rule="evenodd" clip-rule="evenodd" d="M59.2532 33.8916L53.6326 28.2393C53.2885 27.8933 53.2885 27.3355 53.6326 26.9895C53.9766 26.6436 54.5313 26.6436 54.8753 26.9895L58.9969 31.1343V16.0345C58.9969 15.5473 59.3901 15.1518 59.8745 15.1518C60.359 15.1518 60.7522 15.5473 60.7522 16.0345V31.1343L64.8737 26.9895C65.2178 26.6436 65.7725 26.6436 66.1165 26.9895C66.2885 27.1625 66.3728 27.3885 66.3728 27.6144C66.3728 27.8404 66.2885 28.0663 66.1165 28.2393L60.4959 33.8916C60.1519 34.2376 59.5972 34.2376 59.2532 33.8916Z" fill="#140E6A"></path> </svg> 